{"glyphs":{":":{"x_min":0,"x_max":224,"ha":224,"o":"m 171 1 l 171 127 l 56 127 l 56 1 z m 171 388 l 171 514 l 56 514 l 56 388 z"},"$":{"x_min":0,"x_max":542,"ha":542,"o":"m 313 749 l 235 749 l 235 661 b 212 657 190 651 168 642 b 146 633 126 622 110 607 b 93 592 79 575 68 554 b 58 533 53 510 53 483 b 53 453 58 428 68 408 b 78 389 92 372 108 360 b 126 346 145 336 166 328 b 188 321 211 314 235 309 l 235 86 b 210 89 186 96 164 106 b 141 115 120 129 101 148 l 47 94 b 74 69 104 49 134 36 b 166 23 199 14 235 11 l 235 -81 l 313 -81 l 313 12 b 368 19 412 39 445 72 b 478 106 494 150 494 204 b 494 232 489 256 479 274 b 469 294 456 309 438 321 b 422 333 402 342 380 350 b 359 356 336 363 313 368 l 313 590 b 332 589 350 586 370 580 b 388 576 406 567 422 555 l 470 613 b 446 632 420 644 392 652 b 365 659 338 663 313 664 z m 416 204 b 416 173 407 147 388 126 b 370 106 345 93 313 87 l 313 292 b 327 289 340 285 352 280 b 365 275 376 270 386 263 b 395 256 403 248 408 238 b 413 229 416 217 416 204 z m 131 483 b 131 498 134 511 140 522 b 145 533 153 543 162 552 b 172 560 183 567 196 572 b 209 578 222 583 235 586 l 235 386 b 221 390 208 394 195 400 b 182 404 171 411 162 418 b 152 426 144 435 139 446 b 134 456 131 468 131 483 z"},"?":{"x_min":0,"x_max":382,"ha":382,"o":"m 212 0 l 212 124 l 94 124 l 94 0 z m 10 666 l 59 592 b 92 619 124 633 156 633 l 190 633 b 211 633 228 626 242 612 b 256 599 263 582 263 563 l 263 525 b 263 510 256 494 242 479 b 229 464 214 448 198 433 b 186 421 174 409 162 396 b 150 384 139 372 130 358 b 120 346 112 332 106 318 b 100 303 97 288 96 272 b 95 259 96 246 96 232 b 98 220 98 207 98 194 l 196 194 l 194 268 b 194 277 196 286 200 296 b 205 305 210 314 218 324 b 224 332 232 341 241 350 l 266 375 b 277 386 289 398 300 410 b 311 421 322 433 330 446 b 339 458 347 471 352 484 b 358 497 361 511 361 525 l 361 563 b 361 584 357 604 348 622 b 339 641 327 657 312 670 b 297 683 279 694 258 702 b 236 709 214 713 190 713 l 156 713 b 131 713 105 709 80 701 b 55 693 31 681 10 666 z"},"<":{"x_min":0,"x_max":542,"ha":542,"o":"m 145 299 l 500 498 l 462 575 l 42 339 l 42 259 l 462 24 l 500 101 z"},"'":{"x_min":0,"x_max":219,"ha":219,"o":"m 158 749 l 61 748 l 61 711 b 61 697 61 684 60 670 b 60 658 60 644 60 630 b 61 616 62 601 63 584 b 64 568 67 550 70 529 l 149 529 b 152 550 155 568 156 584 b 157 601 158 616 158 630 b 159 644 159 658 158 670 b 158 684 158 697 158 711 z"},"=":{"x_min":0,"x_max":542,"ha":542,"o":"m 42 232 l 42 153 l 500 153 l 500 232 z m 42 445 l 42 366 l 500 366 l 500 445 z"},"a":{"x_min":0,"x_max":500,"ha":500,"o":"m 237 533 b 198 534 164 530 136 522 b 108 514 81 499 56 476 l 124 416 b 139 430 155 440 172 445 b 189 450 208 453 230 453 l 235 453 b 310 451 347 410 347 329 l 347 303 b 319 312 287 316 251 316 b 186 316 134 303 93 277 b 52 251 31 210 31 155 b 31 44 98 -11 233 -11 b 246 -11 259 -11 274 -10 b 289 -9 305 -7 322 -3 b 338 1 356 7 376 15 b 394 23 415 35 436 50 l 436 334 b 436 467 370 533 237 533 z m 245 67 b 166 67 126 97 126 156 b 126 213 170 241 259 241 b 302 241 331 237 346 229 l 346 91 b 335 84 322 78 305 74 b 288 69 268 67 245 67 z"},"L":{"x_min":0,"x_max":497,"ha":497,"o":"m 492 84 l 172 84 l 172 693 l 75 693 l 75 0 l 492 0 z"},"3":{"x_min":0,"x_max":542,"ha":542,"o":"m 48 615 l 130 563 b 134 568 138 573 143 578 b 148 583 152 588 156 593 l 154 592 b 166 605 178 613 190 616 b 202 619 217 620 236 620 l 304 620 b 315 620 325 618 336 614 b 346 611 355 606 364 599 b 372 592 378 585 383 576 b 388 567 390 557 390 546 l 390 491 b 390 480 387 470 382 460 b 377 449 369 440 358 432 b 347 424 335 418 320 413 b 306 408 290 406 272 406 l 203 406 l 203 324 l 272 324 l 277 324 b 313 323 343 314 368 296 b 393 280 405 256 405 225 l 405 174 b 405 147 395 125 375 110 b 355 94 330 86 300 86 l 243 86 b 230 86 216 87 200 88 b 185 90 173 95 164 102 l 114 142 l 48 78 b 55 71 63 65 72 58 b 82 51 90 45 98 38 b 107 32 118 27 131 22 b 144 18 157 15 170 12 b 183 9 196 7 209 6 b 222 5 233 4 243 4 l 300 4 b 329 4 357 8 382 16 b 407 24 430 35 448 50 b 467 65 482 82 493 104 b 504 124 509 148 509 174 l 509 225 b 509 257 501 285 486 310 b 471 334 450 354 424 369 b 447 385 464 404 476 425 b 488 446 494 469 494 492 l 494 546 b 495 568 490 588 478 608 b 468 626 453 643 435 657 b 417 671 396 682 374 690 b 350 698 327 702 304 702 l 236 702 b 218 702 202 702 187 701 b 172 700 159 698 146 694 b 134 691 122 685 110 678 b 99 670 87 659 75 645 z"},";":{"x_min":0,"x_max":224,"ha":224,"o":"m 167 113 l 66 114 b 67 104 67 95 68 87 b 68 79 68 72 68 66 b 68 -12 54 -79 27 -136 l 99 -159 b 145 -79 168 2 168 83 l 168 100 b 168 106 168 110 167 113 z m 169 382 l 169 516 l 61 516 l 61 382 z"},"J":{"x_min":0,"x_max":478,"ha":478,"o":"m 406 221 l 408 693 l 273 693 l 273 616 l 311 616 l 311 232 b 311 173 300 131 278 106 b 256 81 221 69 172 69 b 125 69 79 85 34 117 l -4 40 b 12 26 36 13 68 1 b 100 -11 136 -17 176 -17 b 329 -17 406 62 406 221 z"},"V":{"x_min":0,"x_max":634,"ha":634,"o":"m 634 694 l 531 693 b 442 428 371 236 318 115 b 265 238 194 431 105 694 l -2 694 b 75 463 166 232 271 1 l 362 1 b 407 100 452 207 498 322 b 542 437 588 561 634 694 z"},"\"":{"x_min":0,"x_max":396,"ha":396,"o":"m 158 761 l 61 761 l 61 711 b 61 697 61 684 60 670 b 60 658 60 644 60 630 b 61 616 62 601 64 584 b 65 568 68 550 71 529 l 148 529 b 151 550 154 568 156 584 b 157 601 158 616 158 630 b 159 644 159 658 158 670 b 158 684 158 697 158 711 z m 335 762 l 238 761 l 238 712 b 238 698 238 684 238 672 b 237 658 237 645 238 631 b 238 617 239 602 240 586 b 242 569 245 551 248 530 l 325 530 b 328 551 331 569 332 586 b 334 602 335 617 336 631 b 336 645 336 658 336 672 b 335 684 335 698 335 712 z"},"7":{"x_min":0,"x_max":542,"ha":542,"o":"m 103 0 l 201 0 b 207 30 216 63 228 98 b 240 134 254 171 269 209 b 284 247 301 285 320 323 b 339 361 358 398 377 434 b 396 469 416 503 435 534 b 454 565 473 593 490 616 l 490 693 l 49 693 l 49 612 l 386 612 b 369 589 351 562 332 531 b 314 500 296 466 277 430 b 258 394 240 356 222 318 b 204 279 187 240 172 202 b 157 165 143 129 131 94 b 119 59 110 28 103 0 z"},"S":{"x_min":0,"x_max":510,"ha":510,"o":"m 68 119 b 60 106 52 93 44 80 b 37 68 29 55 21 42 b 27 39 35 34 44 28 b 54 23 66 17 81 11 b 96 5 113 0 133 -5 b 153 -10 177 -12 204 -13 l 264 -13 b 290 -12 316 -8 342 0 b 369 6 393 17 414 32 b 435 47 453 66 466 88 b 479 111 486 140 486 173 b 486 199 483 223 477 245 b 471 267 460 287 444 305 b 428 323 406 339 378 354 b 350 369 314 382 271 394 b 243 400 220 407 203 416 b 186 425 172 434 162 446 b 153 456 146 469 142 482 b 139 495 137 510 137 526 b 137 553 147 576 168 596 b 189 615 223 625 270 625 b 295 625 321 622 348 615 b 376 608 401 599 422 586 b 429 599 436 611 443 624 b 450 637 457 650 464 663 b 447 672 423 682 393 692 b 363 701 332 707 300 708 l 270 708 b 242 708 214 704 186 698 b 159 691 134 680 112 666 b 90 653 72 636 58 615 b 44 594 37 570 36 543 b 35 538 35 532 35 527 l 35 505 b 35 454 50 414 80 386 b 111 357 156 334 216 316 b 244 307 268 299 290 291 b 310 283 328 274 342 264 b 356 253 366 241 373 226 b 380 211 383 193 383 171 b 383 153 380 138 372 125 b 366 112 356 102 346 94 b 334 86 322 80 308 76 b 295 72 281 70 267 70 l 229 69 b 206 68 179 72 150 80 b 121 87 93 100 68 119 z"},"}":{"x_min":0,"x_max":311,"ha":311,"o":"m 282 262 l 282 335 b 253 335 230 344 214 363 b 198 382 190 405 190 432 l 190 612 b 190 669 176 712 148 740 b 120 768 71 782 2 782 l -2 782 l -2 709 b 37 709 64 702 80 688 b 96 674 104 648 104 610 l 104 456 b 104 379 126 326 171 298 b 126 270 104 217 104 140 l 104 -14 b 104 -52 96 -78 80 -92 b 64 -106 37 -113 -2 -113 l -2 -186 l 2 -186 b 71 -186 120 -172 148 -144 b 176 -116 190 -73 190 -15 l 190 165 b 190 192 198 215 214 234 b 230 253 253 262 282 262 z"},"Z":{"x_min":0,"x_max":551,"ha":551,"o":"m 515 615 l 515 693 l 40 693 l 40 610 l 396 610 b 340 546 274 459 198 349 b 121 238 63 144 22 65 l 22 0 l 525 0 l 525 83 l 135 83 b 181 166 243 260 320 367 b 359 420 394 468 426 508 b 459 550 488 585 515 615 z"},"x":{"x_min":0,"x_max":489,"ha":489,"o":"m 380 1 l 482 0 b 466 32 443 71 412 117 b 382 163 344 217 298 279 l 466 520 l 367 520 l 242 338 l 118 520 l 13 520 l 185 273 b 102 163 42 72 5 0 l 101 0 b 137 69 183 140 240 214 b 307 126 353 55 380 1 z"},")":{"x_min":0,"x_max":302,"ha":302,"o":"m 3 -110 l 73 -166 b 83 -159 92 -151 100 -144 b 108 -136 115 -129 120 -122 b 142 -95 159 -67 172 -40 b 185 -12 194 16 202 44 b 208 73 213 101 215 130 b 217 158 218 186 218 215 l 218 307 b 218 355 217 399 216 440 b 214 480 208 518 200 554 b 190 590 177 625 158 658 b 140 691 114 725 80 759 l 70 769 l 0 713 b 11 704 18 697 22 692 b 27 687 31 683 34 679 b 59 648 77 618 89 589 b 101 560 109 530 114 500 b 119 470 121 439 120 408 b 120 376 120 342 120 307 l 120 215 b 120 189 119 162 117 134 b 115 105 110 77 104 50 b 96 23 86 -4 72 -30 b 59 -55 40 -78 17 -98 b 15 -100 13 -102 10 -104 b 7 -106 5 -108 3 -110 z"},"&":{"x_min":0,"x_max":644,"ha":644,"o":"m 522 -4 l 602 48 b 589 62 577 76 564 91 b 551 106 538 120 525 134 b 537 147 547 160 556 172 b 565 185 573 197 580 210 l 579 209 b 584 217 589 225 594 232 b 599 240 604 248 609 256 l 523 302 b 518 294 512 286 506 277 b 501 268 495 260 490 252 b 485 243 480 235 475 228 b 470 220 465 212 460 205 l 452 212 b 450 215 448 218 445 221 b 422 246 399 270 376 295 b 353 320 331 345 309 370 b 332 383 354 396 375 411 b 396 426 413 441 428 458 b 442 474 453 492 460 511 b 467 530 470 551 467 574 b 462 617 445 650 416 672 b 387 694 350 706 304 708 l 305 708 b 281 709 258 707 236 700 b 213 693 193 684 176 671 b 158 658 143 643 131 626 b 119 609 111 591 108 572 b 106 555 106 539 109 522 b 112 505 116 489 122 474 b 127 459 134 444 142 430 b 150 417 158 405 167 394 l 168 392 b 151 382 134 371 118 358 b 102 346 88 333 76 318 b 63 303 53 287 46 270 b 39 253 35 234 35 214 b 35 185 40 157 50 130 b 59 104 73 81 92 61 b 111 41 134 25 162 12 b 189 -1 221 -8 258 -10 b 295 -9 330 -1 363 16 b 396 32 427 51 455 72 b 478 48 500 23 522 -4 z m 262 72 b 241 73 222 77 207 84 b 192 92 179 102 169 115 b 159 128 152 142 146 160 b 142 176 139 195 139 214 b 139 225 141 236 146 246 b 150 256 156 266 164 274 b 172 284 181 292 192 300 b 203 308 214 316 225 323 b 248 296 272 270 296 243 b 321 216 345 190 369 165 b 373 160 377 156 382 152 b 386 147 390 143 394 138 b 373 121 351 105 328 91 b 305 77 283 71 262 72 z m 249 444 b 238 459 228 476 220 496 b 212 517 209 539 212 562 b 214 581 224 596 240 608 b 258 621 277 627 299 626 b 316 625 331 619 342 608 b 353 598 360 583 363 564 b 364 551 361 539 356 528 b 350 517 342 506 332 496 b 322 485 310 475 297 466 b 284 456 269 447 253 438 b 252 439 252 440 251 441 b 250 442 250 443 249 444 z"},"_":{"x_min":0,"x_max":470,"ha":470,"o":"m -15 -106 l -15 -185 l 485 -185 l 485 -106 z"},"v":{"x_min":0,"x_max":480,"ha":480,"o":"m 474 520 l 380 520 b 345 377 299 240 242 109 b 185 240 139 377 104 520 l 4 520 b 47 359 112 186 197 0 l 281 0 b 366 186 431 359 474 520 z"},"O":{"x_min":0,"x_max":756,"ha":756,"o":"m 46 368 b 46 307 52 254 64 208 b 77 161 100 119 133 82 b 164 47 200 22 240 8 b 279 -8 325 -15 378 -15 b 429 -15 474 -7 515 9 b 556 25 590 48 619 79 b 648 110 670 147 685 192 b 700 237 708 288 708 345 b 708 401 701 451 686 496 b 672 541 651 579 623 610 b 595 642 560 666 520 684 b 478 700 432 709 379 709 b 330 709 285 701 244 686 b 202 670 167 647 138 618 b 109 589 86 553 70 511 b 54 469 46 421 46 368 z m 148 331 b 148 369 151 405 158 440 b 165 474 175 504 190 530 b 205 556 224 577 246 594 b 269 610 297 620 330 623 b 338 624 346 624 354 624 b 362 625 370 625 378 625 b 453 625 509 601 547 554 b 585 507 604 437 604 345 b 604 258 585 191 548 142 b 510 93 453 69 377 69 b 304 69 247 92 208 138 b 168 185 148 249 148 331 z"},"(":{"x_min":0,"x_max":302,"ha":302,"o":"m 297 712 l 227 768 b 217 761 208 753 200 746 b 192 738 185 731 180 724 b 158 697 141 669 128 642 b 115 614 106 586 98 558 b 92 529 87 501 85 472 b 83 444 82 416 82 387 l 82 295 b 82 247 83 203 84 162 b 86 122 91 84 100 48 b 110 12 123 -23 142 -56 b 160 -89 186 -123 220 -157 l 230 -167 l 300 -111 b 289 -102 282 -95 278 -90 b 273 -85 269 -81 266 -77 b 241 -46 223 -16 211 13 b 199 42 191 72 186 102 b 181 132 179 163 180 194 b 180 226 180 260 180 295 l 180 387 b 180 413 181 440 183 468 b 185 497 190 525 196 552 b 204 579 214 606 228 632 b 241 657 260 680 283 700 b 285 702 287 704 290 706 b 293 708 295 710 297 712 z"},"C":{"x_min":0,"x_max":598,"ha":598,"o":"m 526 576 l 582 642 b 557 661 527 676 494 688 b 461 701 429 707 398 707 l 339 707 b 301 707 265 698 230 679 b 195 660 165 636 138 607 b 111 578 90 545 74 509 b 59 473 51 438 51 403 l 51 334 b 51 293 57 251 70 210 b 82 169 100 131 125 98 b 150 65 180 38 216 17 b 253 -4 295 -14 342 -14 l 397 -14 b 419 -14 438 -13 455 -10 b 472 -7 487 -4 500 0 b 514 5 527 10 538 16 b 550 23 563 30 576 38 l 528 108 b 518 102 508 96 500 92 b 490 86 481 82 471 79 b 461 76 450 73 438 71 b 426 69 412 68 397 68 l 342 68 b 310 68 282 76 258 92 b 233 107 213 128 196 153 b 180 178 168 207 160 238 b 151 270 147 302 147 334 l 147 403 b 147 428 152 453 162 480 b 173 506 187 530 204 552 b 222 573 243 591 266 604 b 289 618 314 625 339 625 l 398 625 b 417 625 439 620 462 611 b 485 602 507 590 526 576 z"},"W":{"x_min":0,"x_max":907,"ha":907,"o":"m 452 470 l 454 470 b 503 313 560 157 625 0 l 722 0 b 785 187 841 418 890 693 l 791 693 b 743 430 702 239 668 120 b 585 338 528 501 497 610 l 413 610 b 395 547 372 475 344 394 b 316 313 283 221 244 120 b 205 249 163 439 118 692 l 16 692 b 65 412 121 181 184 -1 l 281 -1 b 357 192 414 349 452 470 z"},"A":{"x_min":0,"x_max":641,"ha":641,"o":"m 538 0 l 644 0 b 533 306 440 537 365 693 l 276 693 b 201 537 108 306 -3 0 l 98 0 l 161 177 l 475 177 b 509 80 530 21 538 0 z m 447 257 l 189 257 b 236 392 279 500 318 582 b 334 546 353 501 374 447 b 395 393 420 330 447 257 z"},"f":{"x_min":0,"x_max":364,"ha":364,"o":"m 272 776 b 137 776 69 706 69 567 l 69 0 l 162 0 l 162 442 l 336 442 l 353 520 l 162 520 l 162 565 b 162 652 201 696 279 696 b 314 696 343 690 367 679 l 384 759 b 357 770 320 776 272 776 z"},"Q":{"x_min":0,"x_max":756,"ha":756,"o":"m 46 368 b 46 307 52 254 64 208 b 77 161 100 119 133 82 b 161 51 192 28 226 13 b 261 -2 300 -11 344 -14 b 351 -37 360 -58 374 -77 b 386 -96 404 -114 426 -129 l 460 -152 l 510 -90 b 505 -87 499 -83 494 -78 b 488 -74 482 -70 477 -67 l 478 -68 b 463 -57 450 -37 439 -10 b 523 1 589 38 636 98 b 684 159 708 242 708 345 b 708 401 701 451 686 496 b 672 541 651 579 623 610 b 595 642 560 666 520 684 b 478 700 432 709 379 709 b 330 709 285 701 244 686 b 202 670 167 647 138 618 b 109 589 86 553 70 511 b 54 469 46 421 46 368 z m 148 331 b 148 369 151 405 158 440 b 165 474 175 504 190 530 b 205 556 224 577 246 594 b 269 610 297 620 330 623 b 338 624 346 624 354 624 b 362 625 370 625 378 625 b 453 625 509 601 547 554 b 585 507 604 437 604 345 b 604 267 589 204 559 157 b 529 110 483 81 422 72 l 422 77 l 422 118 l 330 118 l 330 101 l 330 72 b 271 81 226 109 195 154 b 164 199 148 258 148 331 z"},"w":{"x_min":0,"x_max":755,"ha":755,"o":"m 495 0 l 575 0 b 607 71 637 150 666 236 b 695 322 722 417 748 520 l 652 520 b 635 441 616 368 597 300 b 578 233 557 170 534 113 b 509 184 487 253 468 320 b 449 387 432 454 419 520 l 342 520 b 309 373 270 238 225 113 b 202 170 181 233 162 300 b 143 368 124 441 107 520 l 7 520 b 33 417 60 322 89 236 b 118 150 148 71 180 0 l 261 0 b 308 120 347 239 378 357 b 407 245 446 126 495 0 z"},"-":{"x_min":0,"x_max":277,"ha":277,"o":"m 15 343 l 15 256 l 262 256 l 262 343 z"},"E":{"x_min":0,"x_max":549,"ha":549,"o":"m 75 0 l 523 0 l 523 83 l 172 83 l 172 323 l 462 323 l 462 404 l 172 404 l 172 610 l 498 610 l 498 693 l 75 693 z"},"s":{"x_min":0,"x_max":424,"ha":424,"o":"m 212 67 b 189 67 165 70 141 77 b 117 84 99 93 88 106 b 78 95 68 85 58 76 b 49 66 39 56 29 45 b 36 36 46 28 58 20 b 72 14 87 8 104 4 b 121 -1 140 -4 161 -6 b 182 -9 203 -10 225 -10 b 287 -10 333 4 362 31 b 392 58 407 95 407 140 l 407 167 b 405 186 400 202 390 214 b 382 228 369 239 354 249 b 339 259 320 268 300 276 b 278 284 255 292 229 300 b 210 306 193 311 180 316 b 166 321 155 326 146 331 b 137 336 131 343 127 351 b 123 359 121 370 121 383 l 121 389 b 121 399 124 408 130 416 b 136 424 144 431 154 437 b 163 443 174 448 186 451 b 199 454 211 456 224 456 b 246 456 266 454 285 448 b 304 444 319 436 330 427 b 337 440 344 452 351 464 b 358 476 365 488 372 500 b 353 510 330 518 304 524 b 279 530 252 533 224 533 b 201 533 178 530 156 523 b 134 516 114 508 96 496 b 79 486 64 472 53 457 b 42 442 36 426 35 409 l 35 402 l 35 395 l 35 380 l 35 353 b 37 334 43 317 54 304 b 64 291 77 279 94 269 b 111 259 130 250 152 242 b 173 234 196 226 220 218 b 232 214 244 210 256 206 b 269 202 280 197 289 192 b 298 186 306 179 312 170 b 318 161 321 151 321 138 l 321 130 b 321 109 311 93 292 82 b 273 72 246 67 212 67 z"},">":{"x_min":0,"x_max":542,"ha":542,"o":"m 397 300 l 42 101 l 80 24 l 500 260 l 500 340 l 80 575 l 42 498 z"},"l":{"x_min":0,"x_max":251,"ha":251,"o":"m 223 -10 l 238 68 b 207 72 186 79 175 90 b 164 101 159 121 159 151 l 159 776 l 66 760 l 66 136 b 66 85 78 49 102 26 b 126 3 166 -9 223 -10 z"},"8":{"x_min":0,"x_max":542,"ha":542,"o":"m 491 508 l 491 532 b 491 553 486 574 474 594 b 464 616 449 634 431 651 b 413 668 392 681 370 692 b 346 703 323 708 299 708 l 249 708 b 225 708 202 703 178 694 b 155 685 135 672 118 656 b 100 640 86 622 74 601 b 64 580 58 559 58 536 l 58 500 b 58 464 65 435 80 414 b 95 392 114 374 137 360 b 109 343 86 320 68 293 b 51 266 42 236 42 205 l 42 157 b 43 136 49 116 60 95 b 71 74 86 56 104 38 b 122 22 142 8 164 -3 b 186 -14 209 -19 232 -19 b 236 -20 240 -20 244 -20 l 269 -20 l 305 -20 b 325 -20 346 -16 370 -7 b 392 2 414 14 433 28 b 452 44 468 61 482 81 b 494 101 501 123 501 146 b 501 155 501 165 502 174 b 502 183 502 193 502 202 b 503 242 494 273 476 296 b 458 319 435 337 408 350 b 421 361 433 373 444 386 b 454 399 462 413 470 427 b 476 441 482 455 486 469 b 489 483 491 496 491 508 z m 250 312 b 300 306 338 295 362 278 b 388 261 400 236 399 202 b 399 193 399 184 398 174 b 398 166 398 157 398 148 b 398 136 395 125 389 115 b 383 105 376 96 366 88 b 358 81 348 75 337 70 b 326 65 316 63 307 62 l 270 62 l 244 62 b 240 62 236 62 232 63 b 222 63 212 66 202 72 b 191 77 182 84 174 94 b 166 102 159 113 154 124 b 149 135 146 147 145 158 l 145 205 b 145 219 148 233 154 246 b 159 259 167 271 176 281 b 186 291 197 299 210 304 b 223 310 236 313 250 312 z m 161 500 l 161 536 b 161 548 164 559 168 570 b 173 581 180 590 188 598 b 197 607 206 613 216 618 b 227 624 238 626 249 626 l 299 626 b 310 626 320 623 331 618 b 342 612 351 605 360 596 b 368 586 375 576 380 566 b 385 554 388 543 388 532 l 388 508 b 388 497 386 484 382 470 b 378 456 372 443 364 431 b 356 419 346 409 334 401 b 322 393 308 390 292 391 b 252 394 220 404 196 421 b 173 438 161 465 161 500 z"},"\\":{"x_min":0,"x_max":362,"ha":362,"o":"m -39 753 l 280 -165 l 368 -144 l 46 774 z"},"e":{"x_min":0,"x_max":537,"ha":537,"o":"m 40 259 b 40 218 44 181 52 148 b 61 115 76 87 98 62 b 119 39 146 20 178 6 b 211 -7 248 -13 289 -11 b 330 -10 365 -5 393 6 b 421 16 444 30 462 49 l 395 110 b 384 95 369 84 350 78 b 332 72 310 69 284 69 b 270 69 258 70 248 72 b 237 73 228 76 221 79 b 214 82 207 86 201 90 b 195 95 189 100 184 106 b 171 119 161 135 152 154 b 144 173 139 199 137 234 l 493 234 b 494 237 494 242 494 248 l 494 267 b 494 444 422 532 277 532 b 212 532 156 508 110 460 b 65 413 41 346 40 259 z m 398 307 l 140 308 b 145 348 159 382 182 410 b 205 438 236 452 277 452 b 314 452 344 439 366 412 b 388 385 399 350 398 307 z"},"b":{"x_min":0,"x_max":567,"ha":567,"o":"m 163 497 l 162 776 l 69 760 l 69 56 b 85 40 101 27 118 18 b 134 9 150 2 167 -2 b 184 -7 200 -10 217 -10 b 234 -12 250 -12 267 -12 b 347 -12 410 12 457 61 b 504 110 527 176 527 260 b 527 341 506 406 465 457 b 424 507 367 532 294 532 b 243 532 200 520 163 497 z m 162 99 l 163 410 b 194 437 234 450 282 450 b 333 450 371 433 395 399 b 419 365 431 319 431 261 b 431 200 416 154 386 121 b 356 88 316 71 265 71 b 244 71 226 74 208 79 b 192 84 176 91 162 99 z"},"%":{"x_min":0,"x_max":836,"ha":836,"o":"m 41 524 b 41 495 44 469 51 446 b 58 424 69 405 84 389 b 99 373 116 362 136 356 b 154 350 176 347 199 347 b 222 347 243 350 262 356 b 282 362 299 373 314 389 b 329 405 340 424 347 446 b 354 469 357 495 357 524 b 357 583 343 628 314 659 b 299 675 282 686 262 692 b 244 698 222 701 199 701 b 176 701 154 698 136 692 b 117 686 99 675 84 659 b 55 628 41 583 41 524 z m 277 524 b 277 506 276 490 273 476 b 270 462 265 450 258 440 b 251 430 242 424 232 420 b 223 418 211 416 198 416 b 185 416 173 418 164 420 b 154 424 145 430 138 440 b 131 450 126 462 123 476 b 120 490 119 506 119 524 b 119 542 120 558 123 572 b 126 586 131 598 138 608 b 145 618 154 624 164 628 b 173 630 185 632 198 632 b 211 632 223 630 232 628 b 242 624 251 618 258 608 b 265 598 270 586 273 572 b 276 558 277 542 277 524 z m 481 169 b 481 110 495 65 524 34 b 539 18 556 7 576 1 b 594 -5 616 -8 639 -8 b 662 -8 683 -5 702 1 b 721 7 739 18 754 34 b 769 50 780 69 787 92 b 794 114 797 140 797 169 b 797 198 794 224 787 246 b 780 269 769 288 754 304 b 739 320 722 331 702 337 b 684 343 662 346 639 346 b 616 346 594 343 576 337 b 556 331 539 320 524 304 b 495 273 481 228 481 169 z m 717 169 b 717 151 716 135 713 121 b 710 107 705 95 698 85 b 691 75 682 68 672 66 b 663 62 651 61 638 61 b 625 61 613 62 604 66 b 594 68 585 75 578 85 b 571 95 566 107 563 121 b 560 135 559 151 559 169 b 559 187 560 203 563 217 b 566 231 571 243 578 253 b 585 263 594 270 604 272 b 613 276 625 277 638 277 b 651 277 663 276 672 272 b 682 270 691 263 698 253 b 705 243 710 231 713 217 b 716 203 717 187 717 169 z m 663 680 l 581 694 l 171 14 l 252 -1 z"},"m":{"x_min":0,"x_max":839,"ha":839,"o":"m 69 503 l 69 0 l 162 0 l 162 439 b 189 446 224 449 265 449 b 308 449 337 435 353 408 b 369 381 377 336 377 273 l 377 1 l 470 1 l 470 293 b 470 342 465 382 454 415 b 481 438 521 450 574 450 b 617 450 646 436 661 409 b 676 382 684 336 684 272 l 684 0 l 777 0 l 777 292 b 777 369 763 429 736 470 b 709 511 658 531 583 531 b 558 531 533 527 507 519 b 480 511 461 504 449 497 b 436 490 425 483 416 476 b 385 511 338 529 275 529 b 207 529 138 520 69 503 z"},"#":{"x_min":0,"x_max":645,"ha":645,"o":"m 273 510 l 317 681 l 236 693 l 189 510 l 38 510 l 38 436 l 169 436 l 123 257 l 38 257 l 38 183 l 104 183 l 58 5 l 141 0 l 188 183 l 347 183 l 298 5 l 380 0 l 431 183 l 587 183 l 587 257 l 451 257 l 501 436 l 587 436 l 587 510 l 522 510 l 569 679 l 489 693 l 438 510 z m 207 257 l 254 436 l 418 436 l 367 257 z"},",":{"x_min":0,"x_max":224,"ha":224,"o":"m 167 113 l 66 114 b 67 104 67 95 68 87 b 68 79 68 72 68 66 b 68 -12 54 -79 27 -136 l 99 -159 b 145 -79 168 2 168 83 l 168 100 b 168 106 168 110 167 113 z"},"n":{"x_min":0,"x_max":552,"ha":552,"o":"m 69 506 l 69 0 l 162 0 l 162 439 b 177 442 194 445 211 446 b 228 448 247 449 266 449 b 315 449 349 436 368 410 b 387 385 396 339 396 273 l 396 1 l 489 1 l 489 293 b 489 370 473 429 441 470 b 409 511 354 532 276 532 b 207 532 138 523 69 506 z"},"h":{"x_min":0,"x_max":549,"ha":549,"o":"m 70 1 l 162 0 l 162 432 b 190 443 225 449 267 449 b 316 449 350 436 369 410 b 388 385 397 339 397 273 l 397 1 l 490 1 l 490 293 b 490 370 474 429 442 470 b 410 511 355 532 277 532 b 239 532 201 525 163 511 l 163 767 l 70 761 z"},"z":{"x_min":0,"x_max":449,"ha":449,"o":"m 414 449 l 414 520 l 39 520 l 39 442 l 296 442 b 275 416 252 387 228 356 b 203 325 177 290 150 253 b 95 178 54 115 25 62 l 25 0 l 422 0 l 422 78 l 136 78 b 172 139 218 207 275 280 b 332 354 379 410 414 449 z"},"B":{"x_min":0,"x_max":621,"ha":621,"o":"m 262 -6 b 371 -6 452 11 503 46 b 555 81 581 133 581 203 b 581 288 537 344 448 370 b 514 397 547 446 547 518 b 547 639 452 700 261 700 b 184 700 122 694 75 683 l 75 11 b 122 0 185 -6 262 -6 z m 171 323 l 296 323 b 356 323 402 314 434 296 b 466 278 482 247 482 203 b 482 118 411 76 269 76 b 256 76 244 76 232 76 b 220 77 208 77 197 78 l 184 78 b 177 78 173 78 171 79 z m 170 402 l 171 615 b 182 616 195 617 211 618 b 227 619 246 619 267 619 b 320 619 364 610 397 593 b 430 576 446 549 446 512 b 446 439 388 402 272 402 z"},"K":{"x_min":0,"x_max":607,"ha":607,"o":"m 583 692 l 465 692 b 427 639 383 592 334 550 b 285 509 232 472 176 441 l 176 692 l 72 692 l 72 -1 l 176 -1 l 176 308 b 217 293 254 274 288 250 b 322 226 352 200 380 172 b 406 144 430 115 450 85 b 469 55 485 26 498 -1 l 607 -1 b 595 30 578 63 558 98 b 536 133 510 168 480 202 b 448 237 413 269 372 300 b 331 330 286 355 236 376 b 306 415 371 461 430 514 b 490 566 541 625 583 692 z"},"R":{"x_min":0,"x_max":607,"ha":607,"o":"m 413 289 l 414 290 b 510 323 558 387 558 482 b 558 554 533 608 482 645 b 431 682 357 700 259 700 b 186 700 124 694 75 683 l 75 0 l 172 0 l 172 271 l 259 271 l 292 271 b 300 271 308 271 313 272 b 382 189 442 98 493 0 l 599 0 b 578 47 549 98 512 153 b 493 181 476 206 460 228 b 443 251 428 271 413 289 z m 266 613 l 266 614 b 392 614 455 570 455 481 b 455 429 437 394 402 376 b 367 358 313 349 240 349 l 171 349 l 171 610 b 193 612 225 613 266 613 z"},"T":{"x_min":0,"x_max":543,"ha":543,"o":"m 538 693 l 5 693 l 5 609 l 223 609 l 223 0 l 320 0 l 320 609 l 538 609 z"},"P":{"x_min":0,"x_max":586,"ha":586,"o":"m 259 699 l 259 700 b 186 700 124 694 75 683 l 75 0 l 172 0 l 172 257 l 249 257 b 352 257 429 274 482 309 b 535 344 562 401 562 478 b 562 551 536 606 484 643 b 431 680 356 699 259 699 z m 266 614 l 267 614 b 396 614 460 569 460 479 b 460 426 442 389 406 369 b 370 349 316 339 244 339 l 171 339 l 171 611 b 193 613 225 614 266 614 z"},"|":{"x_min":0,"x_max":257,"ha":257,"o":"m 85 783 l 85 -185 l 172 -185 l 172 783 z"},"t":{"x_min":0,"x_max":380,"ha":380,"o":"m 155 521 l 156 681 l 63 665 l 63 201 b 63 164 66 135 73 114 b 80 94 90 75 103 58 b 116 41 135 25 158 11 b 181 -3 210 -10 244 -10 b 292 -10 335 -1 373 18 l 355 95 b 314 80 280 72 252 72 b 235 72 220 77 208 88 b 195 98 185 108 178 117 b 174 122 171 126 168 132 b 165 136 163 142 161 148 b 159 155 158 162 156 171 b 156 180 155 190 155 203 l 155 443 l 352 443 l 352 521 z"},"M":{"x_min":0,"x_max":849,"ha":849,"o":"m 384 96 l 464 96 b 487 151 522 230 569 333 b 616 436 649 503 668 534 b 679 419 689 242 698 1 l 793 1 b 782 240 765 471 742 694 l 657 694 b 634 655 602 596 564 516 b 524 437 478 336 424 214 b 370 336 324 437 284 516 b 246 596 214 655 191 694 l 106 694 b 85 521 68 290 55 1 l 150 1 b 159 242 169 419 180 534 b 199 503 232 436 279 333 b 326 230 361 151 384 96 z"},"g":{"x_min":0,"x_max":556,"ha":556,"o":"m 397 49 b 396 15 392 -11 386 -30 b 380 -49 371 -64 359 -75 b 335 -97 295 -108 240 -108 l 202 -108 b 192 -108 181 -108 171 -106 b 161 -106 151 -104 141 -102 b 131 -99 120 -96 109 -91 l 70 -161 b 95 -176 122 -184 150 -186 b 178 -187 207 -188 238 -188 b 323 -188 386 -170 427 -134 b 468 -98 488 -40 488 39 l 488 440 b 470 462 452 479 436 491 b 419 503 402 512 386 518 b 369 523 353 527 338 528 b 323 529 308 530 293 530 b 216 530 155 506 110 458 b 65 409 42 347 42 270 b 42 187 63 125 106 82 b 149 39 204 17 271 17 b 297 17 322 21 346 28 b 369 35 386 42 397 49 z m 395 411 l 396 131 b 367 108 328 96 279 96 b 240 96 207 110 180 139 b 153 168 139 211 139 266 b 139 320 153 363 180 396 b 207 428 245 444 294 444 b 313 444 332 442 348 438 b 366 435 381 426 395 411 z"},"j":{"x_min":0,"x_max":231,"ha":231,"o":"m -16 -187 b 103 -187 162 -121 162 10 l 162 520 l 69 520 l 69 9 b 69 -30 62 -59 48 -78 b 34 -97 11 -107 -20 -107 b -37 -107 -53 -105 -67 -100 l -79 -176 b -60 -183 -39 -187 -16 -187 z m 69 625 l 162 625 l 162 725 l 69 725 z"},"i":{"x_min":0,"x_max":231,"ha":231,"o":"m 154 0 l 154 520 l 61 520 l 61 0 z m 60 625 l 155 625 l 155 725 l 60 725 z"},"y":{"x_min":0,"x_max":451,"ha":451,"o":"m 443 521 l 347 521 b 342 502 337 481 332 458 b 328 436 324 414 319 392 b 309 344 298 294 286 244 b 275 192 261 144 246 99 b 228 110 212 126 199 146 b 186 165 174 191 163 224 b 152 256 142 296 133 344 b 124 393 114 452 103 521 l 8 521 b 21 436 33 364 45 306 b 57 248 70 200 85 160 b 100 122 117 90 136 68 b 156 44 181 26 210 11 b 191 -25 170 -54 146 -76 b 123 -97 95 -108 63 -108 b 60 -108 57 -108 52 -108 b 48 -107 43 -107 38 -106 l 28 -188 b 33 -189 39 -189 44 -190 b 49 -190 56 -190 63 -190 b 102 -190 136 -182 166 -166 b 196 -149 222 -127 246 -100 b 268 -72 288 -40 305 -2 b 322 34 337 74 350 116 b 362 158 374 201 384 246 b 393 291 402 334 411 376 b 416 403 422 429 426 452 b 432 476 437 499 443 521 z"},"@":{"x_min":0,"x_max":928,"ha":928,"o":"m 656 385 l 657 385 b 657 412 653 434 645 451 b 637 468 626 482 613 492 b 600 502 584 509 568 513 b 550 517 533 519 516 519 l 448 519 b 421 519 396 515 372 507 b 349 499 328 487 310 470 b 293 454 279 434 268 409 b 258 384 253 355 253 321 l 253 255 b 253 227 258 200 270 174 b 280 149 295 126 314 107 b 332 88 353 72 376 60 b 400 49 424 43 449 43 l 501 43 b 512 43 527 45 544 50 b 561 54 578 61 595 72 b 604 63 616 57 629 52 b 642 47 659 45 679 45 l 725 45 b 746 45 765 52 784 66 b 802 80 818 98 832 119 b 845 140 856 164 864 190 b 871 217 875 242 875 266 l 875 365 b 875 404 866 443 848 484 b 829 525 804 562 772 595 b 741 628 704 656 660 678 b 618 699 571 710 522 710 l 414 710 b 385 710 356 705 328 696 b 298 686 270 673 244 656 b 216 639 192 620 168 597 b 146 574 125 550 108 524 b 91 498 77 471 68 442 b 58 413 53 385 53 357 l 53 224 b 53 175 64 127 86 82 b 108 36 137 -5 172 -40 b 207 -75 248 -104 293 -125 b 338 -146 384 -157 431 -157 l 549 -157 b 557 -157 565 -157 572 -156 b 579 -156 588 -155 598 -154 b 607 -152 619 -149 632 -146 b 646 -142 663 -137 684 -131 l 656 -53 b 639 -58 624 -62 613 -66 b 602 -69 592 -71 585 -72 b 578 -73 571 -74 566 -74 b 561 -75 555 -75 549 -75 l 431 -75 b 396 -75 362 -67 328 -50 b 295 -33 265 -11 238 16 b 211 44 190 76 174 112 b 157 148 149 185 149 224 l 149 357 b 149 390 157 422 172 454 b 188 487 209 516 234 542 b 259 567 288 588 319 604 b 350 620 382 628 414 628 l 522 628 b 558 628 592 620 623 604 b 654 587 681 566 704 540 b 727 515 746 487 759 456 b 772 424 779 394 779 365 l 779 266 b 779 251 778 235 774 218 b 772 202 768 187 762 174 b 758 160 752 149 745 140 b 738 131 731 127 724 127 l 694 127 b 681 127 672 133 668 144 b 662 156 660 170 660 187 l 660 190 z m 560 393 l 560 392 b 561 359 561 324 562 288 b 563 251 563 216 564 183 b 563 172 559 163 554 156 b 549 149 543 143 536 138 b 530 133 524 130 517 128 b 510 126 505 125 501 125 l 449 125 b 436 125 424 128 412 136 b 400 142 389 152 380 164 b 371 176 363 190 358 206 b 352 221 349 238 349 255 l 349 321 b 349 360 359 390 378 408 b 397 428 421 437 448 437 l 516 437 b 526 437 536 434 545 428 b 554 422 560 410 561 393 z"},".":{"x_min":0,"x_max":224,"ha":224,"o":"m 155 0 l 155 115 l 45 115 l 45 0 z"},"p":{"x_min":0,"x_max":567,"ha":567,"o":"m 430 259 b 430 202 418 156 394 122 b 370 88 332 71 281 71 b 233 71 193 84 162 111 l 162 422 b 175 430 190 436 206 442 b 223 446 243 449 264 449 b 315 449 355 432 385 399 b 415 366 430 319 430 259 z m 527 259 b 527 342 503 409 456 458 b 409 507 346 531 265 531 b 250 531 235 530 220 530 b 204 528 188 526 172 522 b 155 517 138 510 121 501 b 104 492 86 479 68 463 l 68 -185 l 161 -185 l 161 23 b 198 0 241 -12 292 -12 b 365 -12 422 13 463 63 b 504 112 525 178 527 259 z"},"X":{"x_min":0,"x_max":609,"ha":609,"o":"m 491 0 l 600 0 b 552 93 474 216 366 369 l 584 692 l 473 692 l 304 434 l 133 692 l 21 692 l 243 365 b 133 207 56 85 12 -1 l 119 -1 b 160 80 222 179 305 296 b 392 176 454 77 491 0 z"},"*":{"x_min":0,"x_max":458,"ha":458,"o":"m 274 684 l 274 693 l 184 693 l 184 685 b 184 678 184 670 183 661 b 182 652 182 642 182 632 b 182 620 183 608 184 594 b 185 579 188 562 192 543 b 176 552 162 560 149 566 b 136 571 125 576 114 580 b 103 583 94 586 85 589 b 76 592 68 594 60 597 l 54 599 l 26 515 l 34 512 b 42 509 50 505 58 502 b 67 498 76 494 86 490 b 97 487 109 484 122 481 b 135 478 151 476 170 475 b 161 467 151 458 140 446 b 129 436 119 424 110 414 b 101 402 92 392 85 384 b 78 374 73 368 70 364 l 146 311 b 149 314 153 318 160 326 b 167 332 174 340 182 350 b 190 358 198 368 206 380 b 215 390 222 402 229 414 b 242 397 254 379 266 362 b 279 345 293 327 310 310 l 383 365 b 374 379 365 391 357 402 b 349 412 341 421 334 430 b 326 438 318 446 310 453 b 302 460 293 468 283 476 b 302 477 318 479 332 482 b 346 485 358 487 370 490 b 380 493 390 497 399 500 b 408 504 416 508 424 511 l 432 514 l 404 598 l 398 596 b 390 593 382 591 373 588 b 364 586 355 583 344 580 b 333 576 322 571 309 566 b 296 560 282 552 266 543 b 270 562 273 579 274 594 b 275 608 276 620 276 632 b 276 643 276 652 275 660 b 274 669 274 677 274 684 z"},"Y":{"x_min":0,"x_max":576,"ha":576,"o":"m 104 693 l -4 693 b 34 585 71 498 108 434 b 145 369 181 323 217 298 l 217 -1 l 321 -1 l 321 297 b 357 322 394 368 430 433 b 468 498 505 585 543 693 l 435 693 b 403 606 373 536 344 483 b 316 430 291 394 270 373 b 242 398 215 437 188 490 b 161 543 133 610 104 693 z"},"c":{"x_min":0,"x_max":443,"ha":443,"o":"m 265 -11 b 270 -12 276 -12 281 -12 l 297 -12 l 301 -12 b 330 -11 356 -6 380 4 b 402 12 425 27 446 46 l 378 110 b 363 97 347 87 330 80 b 312 73 295 71 276 72 b 183 83 137 146 137 259 b 137 322 151 370 179 403 b 205 433 240 449 284 451 b 301 452 318 450 333 442 b 348 436 363 426 378 413 l 446 476 b 423 497 398 512 372 522 b 346 531 316 535 282 534 b 211 532 153 506 110 457 b 65 406 42 340 42 259 b 42 176 64 111 108 62 b 146 19 198 -5 265 -11 z"},"!":{"x_min":0,"x_max":254,"ha":254,"o":"m 177 505 l 177 693 l 77 693 l 77 505 l 77 434 b 77 409 77 382 78 355 b 79 328 80 300 82 272 b 84 245 87 218 90 191 l 164 191 b 167 218 170 245 172 272 b 174 300 175 328 176 355 b 177 382 177 409 177 434 z m 179 0 l 179 108 l 76 108 l 76 0 z"},"/":{"x_min":0,"x_max":362,"ha":362,"o":"m 53 -163 l 373 758 l 284 768 l -37 -148 z"},"[":{"x_min":0,"x_max":307,"ha":307,"o":"m 85 783 l 85 -185 l 310 -185 l 310 -112 l 172 -112 l 172 710 l 310 710 l 310 783 z"},"6":{"x_min":0,"x_max":542,"ha":542,"o":"m 448 586 l 478 664 b 450 672 424 678 400 682 b 377 685 354 687 333 687 b 287 687 248 681 216 668 b 185 655 159 638 138 616 b 118 595 102 570 91 542 b 80 514 71 485 66 454 b 61 424 57 393 56 362 b 55 331 54 301 53 274 b 53 222 58 178 68 142 b 78 106 92 77 110 54 b 128 31 150 15 176 5 b 202 -5 231 -10 263 -10 l 313 -10 b 336 -10 358 -4 382 8 b 404 19 425 34 444 53 b 462 72 477 92 488 114 b 499 137 505 159 505 181 l 505 233 b 505 254 502 275 494 298 b 488 321 476 341 460 360 b 445 379 424 394 399 406 b 374 419 342 425 305 425 l 250 425 b 233 425 218 424 204 420 b 189 418 176 413 163 408 b 166 433 170 457 178 480 b 184 503 194 524 208 543 b 220 562 237 577 258 588 b 278 599 303 605 333 605 b 349 605 366 604 386 601 b 404 598 425 593 448 586 z m 250 343 l 305 343 b 323 343 338 340 350 332 b 363 326 373 316 380 306 b 388 294 393 283 396 270 b 400 257 401 245 401 233 l 401 183 b 401 170 398 157 393 144 b 388 131 381 119 372 108 b 364 97 355 89 344 82 b 334 75 324 72 313 72 l 263 72 b 231 72 205 87 186 118 b 167 148 157 200 157 274 l 157 302 b 166 310 178 319 194 328 b 211 338 229 343 250 343 z"},"r":{"x_min":0,"x_max":364,"ha":364,"o":"m 261 531 b 194 531 130 520 69 498 l 69 0 l 162 0 l 162 437 b 193 446 221 450 247 450 b 285 450 319 445 349 435 l 365 516 b 333 526 298 531 261 531 z"},"2":{"x_min":0,"x_max":542,"ha":542,"o":"m 31 620 l 111 568 b 126 587 143 600 162 606 b 181 614 201 617 224 617 l 261 617 b 300 617 328 607 345 588 b 362 569 371 540 371 502 b 371 480 368 462 361 446 b 354 431 346 419 334 408 b 324 398 311 389 297 382 b 283 374 269 367 254 360 b 229 349 205 336 180 322 b 156 309 134 292 114 272 b 95 251 79 226 66 196 b 54 165 48 128 48 83 l 48 -2 l 476 -2 l 476 80 l 152 80 l 152 83 b 152 117 156 145 165 168 b 174 190 185 208 199 224 b 213 238 229 251 246 260 b 263 269 281 278 298 286 b 321 297 343 307 364 318 b 385 330 404 343 420 359 b 437 375 450 394 460 417 b 470 440 475 468 475 502 b 475 567 458 616 424 649 b 390 682 336 699 261 699 l 224 699 b 184 699 148 693 116 682 b 85 671 56 650 31 620 z"},"{":{"x_min":0,"x_max":311,"ha":311,"o":"m 29 334 l 29 263 b 58 263 81 253 97 234 b 113 215 121 192 121 165 l 121 -15 b 121 -73 135 -116 163 -144 b 191 -172 240 -186 309 -186 l 313 -186 l 313 -113 b 274 -113 247 -106 231 -92 b 215 -78 207 -52 207 -14 l 207 140 b 207 217 185 270 140 298 b 185 326 207 379 207 456 l 207 610 b 207 648 215 674 231 688 b 247 702 274 709 313 709 l 313 782 l 309 782 b 240 782 191 768 163 740 b 135 712 121 669 121 612 l 121 432 b 121 405 113 382 97 363 b 81 344 58 334 29 334 z"},"9":{"x_min":0,"x_max":542,"ha":542,"o":"m 97 101 l 67 23 b 95 15 121 9 144 6 b 168 2 191 0 212 0 b 258 0 297 6 328 19 b 360 32 386 49 406 70 b 427 92 443 117 454 145 b 465 173 474 202 479 232 b 484 263 488 294 489 325 b 490 356 491 386 492 413 b 492 465 487 509 477 545 b 467 581 453 610 435 633 b 417 656 395 672 369 682 b 343 692 314 697 282 697 l 232 697 b 209 697 187 691 164 680 b 141 668 120 653 102 634 b 83 615 68 595 57 572 b 46 550 40 528 40 506 l 40 454 b 40 433 44 412 50 389 b 58 366 69 346 84 327 b 100 308 121 293 146 280 b 171 268 203 262 240 262 l 295 262 b 312 262 327 264 342 266 b 356 270 369 274 382 279 b 379 254 374 230 367 206 b 360 183 350 162 338 144 b 325 125 308 110 288 99 b 267 88 242 82 212 82 b 196 82 178 83 160 86 b 140 89 120 94 97 101 z m 295 344 l 240 344 b 222 344 207 348 194 354 b 182 362 172 370 164 382 b 157 392 152 404 148 417 b 146 430 144 442 144 454 l 144 504 b 144 517 147 530 152 543 b 157 556 164 568 172 579 b 181 590 190 598 200 605 b 211 612 221 615 232 615 l 282 615 b 314 615 340 600 359 570 b 378 539 388 487 388 413 l 388 385 b 379 377 367 368 350 358 b 334 349 316 344 295 344 z"}," ":{"x_min":0,"x_max":231,"ha":231,"o":""},"I":{"x_min":0,"x_max":247,"ha":247,"o":"m 75 693 l 75 0 l 172 0 l 172 693 z"},"H":{"x_min":0,"x_max":683,"ha":683,"o":"m 511 693 l 511 404 l 172 404 l 172 693 l 75 693 l 75 0 l 172 0 l 172 320 l 511 320 l 511 0 l 608 0 l 608 693 z"},"4":{"x_min":0,"x_max":542,"ha":542,"o":"m 28 261 l 29 199 l 339 199 l 339 0 l 429 0 l 429 199 l 511 199 l 511 275 l 429 275 l 429 693 l 340 693 b 280 633 220 558 159 468 b 144 446 130 426 117 408 b 104 389 92 372 82 356 b 70 339 60 323 52 308 b 42 293 35 277 28 261 z m 338 582 l 338 274 l 118 274 b 125 288 132 301 140 314 b 147 326 155 338 164 350 b 172 362 180 374 190 386 b 198 399 208 413 218 428 b 257 487 297 538 338 582 z"},"~":{"x_min":0,"x_max":542,"ha":542,"o":"m 509 357 l 445 375 b 442 366 439 358 436 348 b 433 340 428 331 423 324 b 418 316 411 310 404 304 b 397 300 388 297 377 297 b 358 297 341 302 324 312 b 307 323 290 333 272 344 b 257 353 241 362 224 370 b 206 378 188 382 168 382 b 145 382 125 377 108 368 b 92 358 79 346 68 332 b 58 317 50 302 44 286 b 38 269 34 255 31 242 l 95 224 b 98 233 101 242 104 250 b 107 259 112 268 117 276 b 122 283 129 289 136 294 b 143 300 152 302 163 302 b 182 302 199 297 216 286 b 233 276 250 266 268 255 b 283 246 300 237 316 229 b 334 221 352 217 372 217 b 395 217 415 222 432 232 b 448 241 461 253 472 268 b 483 282 491 297 496 313 b 502 329 506 344 509 357 z"},"D":{"x_min":0,"x_max":691,"ha":691,"o":"m 644 347 b 644 464 609 552 540 611 b 471 670 377 700 259 700 b 186 700 124 694 75 683 l 75 11 b 124 0 186 -6 259 -6 b 377 -6 471 24 540 83 b 609 142 644 230 644 347 z m 267 81 l 267 79 b 228 79 196 80 172 82 l 172 612 b 196 614 228 615 267 615 b 358 615 426 592 472 546 b 518 500 541 434 541 348 b 541 262 518 196 472 150 b 426 104 358 81 267 81 z"},"^":{"x_min":0,"x_max":542,"ha":542,"o":"m 269 693 l 187 693 l 32 353 l 106 315 l 228 597 l 352 315 l 426 353 z"},"0":{"x_min":0,"x_max":542,"ha":542,"o":"m 37 345 b 38 290 44 240 56 196 b 67 151 83 114 104 83 b 125 52 150 29 179 12 b 208 -4 241 -12 278 -12 b 314 -12 347 -4 376 12 b 406 29 431 52 452 83 b 473 114 489 151 500 196 b 511 240 517 290 517 346 b 517 402 511 452 500 496 b 488 541 472 578 450 609 b 430 640 404 663 375 680 b 346 696 313 704 277 704 b 241 704 208 696 178 680 b 149 663 124 640 102 608 b 82 578 65 540 54 496 b 43 451 37 401 37 345 z m 417 345 b 417 251 405 181 380 136 b 355 91 321 68 276 68 b 231 68 197 91 172 136 b 147 181 135 251 135 345 b 135 439 147 509 172 554 b 197 599 231 622 276 622 b 321 622 355 599 380 554 b 405 509 417 439 417 345 z"},"F":{"x_min":0,"x_max":515,"ha":515,"o":"m 75 0 l 172 0 l 172 319 l 457 319 l 457 401 l 172 401 l 172 610 l 493 610 l 493 693 l 75 693 z"},"`":{"x_min":0,"x_max":354,"ha":354,"o":"m 110 776 l 50 717 l 191 580 l 238 622 z"},"k":{"x_min":0,"x_max":500,"ha":500,"o":"m 454 521 l 354 521 b 329 482 300 446 266 413 b 234 380 199 353 162 333 l 162 775 l 69 759 l 69 -1 l 162 -1 l 162 234 b 218 214 266 184 305 144 b 344 103 377 55 402 -1 l 500 -1 b 473 66 437 124 392 173 b 348 222 292 260 223 285 b 246 298 268 313 290 330 b 312 348 333 367 352 388 b 372 408 391 429 408 452 b 425 475 441 498 454 521 z"},"u":{"x_min":0,"x_max":552,"ha":552,"o":"m 483 55 l 482 520 l 389 520 l 389 98 b 380 90 368 84 350 78 b 334 74 312 71 287 71 b 240 71 206 84 186 111 b 166 138 156 183 156 247 l 156 519 l 63 519 l 63 227 b 63 68 134 -12 277 -12 b 294 -12 312 -12 329 -10 b 346 -10 364 -7 380 -2 b 398 2 414 8 432 18 b 448 26 466 39 483 55 z"},"]":{"x_min":0,"x_max":307,"ha":307,"o":"m 222 -185 l 222 783 l -3 783 l -3 710 l 135 710 l 135 -112 l -3 -112 l -3 -185 z"},"U":{"x_min":0,"x_max":666,"ha":666,"o":"m 332 -15 l 333 -15 b 420 -15 485 10 529 60 b 573 110 595 176 595 258 l 595 693 l 498 693 l 498 269 b 498 202 483 153 454 120 b 425 88 384 72 332 72 b 279 72 239 88 210 120 b 181 153 166 202 166 269 l 166 693 l 69 693 l 69 258 b 69 176 91 110 135 60 b 179 10 245 -15 332 -15 z"},"o":{"x_min":0,"x_max":568,"ha":568,"o":"m 530 271 b 530 303 526 335 517 366 b 508 397 494 425 474 450 b 455 474 429 494 398 509 b 367 524 329 532 284 532 b 238 532 199 526 168 513 b 137 500 112 482 92 459 b 74 436 60 407 52 374 b 44 340 40 302 40 259 b 40 208 44 166 52 134 b 60 102 75 76 98 57 b 117 35 142 18 171 6 b 200 -6 238 -12 284 -12 b 336 -12 378 -4 410 12 b 442 27 467 48 485 74 b 503 101 515 131 521 165 b 527 199 530 234 530 271 z m 431 270 l 431 246 b 431 186 420 141 398 111 b 376 81 339 66 286 66 b 259 66 236 70 216 77 b 198 84 182 96 171 112 b 160 127 152 147 146 171 b 142 195 139 224 139 258 b 139 279 140 301 142 324 b 145 347 151 367 161 386 b 171 406 186 421 206 434 b 225 446 252 452 286 452 b 313 452 336 448 354 439 b 373 430 388 418 399 402 b 410 386 418 367 424 344 b 428 322 431 297 431 270 z"},"N":{"x_min":0,"x_max":706,"ha":706,"o":"m 549 1 l 631 0 l 631 693 l 536 693 l 536 180 b 491 255 430 344 355 445 b 279 547 211 630 151 694 l 74 694 l 74 1 l 169 1 l 169 542 b 196 512 225 476 257 434 b 289 391 324 343 362 288 b 400 233 434 182 466 134 b 496 87 524 42 549 1 z"},"+":{"x_min":0,"x_max":542,"ha":542,"o":"m 42 339 l 42 260 l 231 260 l 231 53 l 311 53 l 311 260 l 500 260 l 500 339 l 311 339 l 311 545 l 231 545 l 231 339 z"},"G":{"x_min":0,"x_max":650,"ha":650,"o":"m 174 483 b 182 503 193 522 206 539 b 219 556 234 571 250 584 b 266 597 283 607 300 614 b 318 621 336 625 353 625 l 408 625 b 419 625 429 623 440 620 b 450 617 460 613 468 608 b 477 604 486 600 494 594 b 501 590 508 585 514 581 l 513 582 b 515 581 517 579 520 578 b 522 577 524 575 525 574 l 583 642 b 582 643 580 644 579 645 b 578 646 576 647 574 648 b 567 653 558 659 547 666 b 536 673 524 679 510 685 b 497 691 482 696 464 700 b 448 705 429 707 408 707 l 353 707 b 314 707 277 698 240 681 b 204 664 172 641 144 612 b 137 605 131 598 126 590 b 120 584 114 576 109 569 b 107 566 105 563 103 560 b 101 557 99 554 98 551 b 95 547 93 543 92 540 b 90 536 88 532 86 528 l 84 524 b 83 522 81 519 80 515 b 59 468 49 412 49 347 b 49 232 78 144 137 81 b 196 18 275 -14 374 -14 b 459 -14 533 -4 596 17 l 596 341 l 460 341 l 460 252 l 498 252 l 498 83 b 470 74 432 70 384 70 b 308 70 250 95 210 145 b 170 195 150 262 150 347 b 150 398 158 444 174 483 z"},"q":{"x_min":0,"x_max":567,"ha":567,"o":"m 139 257 l 139 259 b 139 318 154 365 184 398 b 214 431 254 447 305 447 b 326 447 346 444 362 440 b 379 434 394 428 407 420 l 407 109 b 376 82 336 69 288 69 b 237 69 199 86 175 120 b 151 154 139 200 139 257 z m 40 257 b 42 176 63 110 104 61 b 145 11 202 -14 275 -14 b 326 -14 369 -2 406 21 l 406 -187 l 499 -187 l 499 461 b 481 477 463 490 446 499 b 429 508 412 515 396 520 b 379 524 363 526 348 528 b 332 528 317 529 302 529 b 221 529 158 505 111 456 b 64 407 40 340 40 257 z"},"d":{"x_min":0,"x_max":567,"ha":567,"o":"m 404 409 l 405 98 b 391 90 376 83 358 78 b 342 73 323 70 302 70 b 251 70 211 87 181 120 b 151 153 136 199 136 260 b 136 318 148 364 172 398 b 196 432 234 449 285 449 b 333 449 373 436 404 409 z m 405 759 l 404 496 b 367 519 324 531 273 531 b 200 531 143 506 102 456 b 61 405 40 340 40 259 b 40 175 63 109 110 60 b 157 11 220 -13 300 -13 b 317 -13 333 -12 350 -12 b 367 -10 383 -8 400 -4 b 416 1 432 8 449 17 b 466 26 482 39 498 55 l 498 775 z"},"1":{"x_min":0,"x_max":456,"ha":456,"o":"m 211 -1 l 315 -1 l 315 692 l 211 692 b 210 689 206 684 197 677 b 188 670 178 664 166 656 b 153 650 140 643 125 636 b 110 629 97 624 84 621 l 112 543 b 127 547 144 553 160 562 b 178 571 194 581 211 592 z"},"5":{"x_min":0,"x_max":542,"ha":542,"o":"m 447 613 l 447 695 l 110 695 l 85 334 l 187 334 b 192 341 199 347 210 350 b 220 353 235 355 254 355 b 259 355 263 355 268 354 b 272 354 277 354 282 354 b 295 354 308 350 320 343 b 331 336 341 326 350 315 b 359 304 365 291 370 277 b 376 263 378 249 378 235 l 378 172 b 378 160 375 148 370 136 b 364 125 357 114 348 106 b 339 96 330 89 318 84 b 308 78 297 75 286 75 l 228 75 b 217 75 204 77 192 82 b 178 87 167 93 158 100 l 115 135 l 47 73 l 91 36 b 108 21 129 10 154 4 b 178 -4 203 -7 228 -7 l 286 -7 b 309 -7 333 -2 356 8 b 379 19 400 32 419 50 b 438 66 453 86 464 107 b 476 128 482 150 482 172 l 482 235 b 482 258 477 282 466 306 b 455 329 441 351 423 370 b 405 389 384 405 360 418 b 335 430 309 436 282 436 l 239 436 l 218 436 l 208 436 b 204 436 200 436 197 435 b 198 457 199 475 200 490 b 202 505 202 518 203 531 b 204 544 204 556 205 568 b 206 581 207 596 208 613 z"}}}
